<?xml version="1.0" encoding="UTF-8"?>
<svg xmlns="http://www.w3.org/2000/svg" xmlns:xlink="http://www.w3.org/1999/xlink" width="84px" height="100px" viewBox="0 0 84 100" version="1.1">
<g id="surface1">
<path style=" stroke:none;fill-rule:nonzero;fill:rgb(0%,0%,0%);fill-opacity:1;" d="M 41.035156 9.515625 C 39.394531 9.625 37.246094 9.964844 35.453125 10.40625 C 30.3125 11.664062 25.59375 14.125 21.542969 17.660156 C 19.5 19.445312 17.359375 21.882812 15.863281 24.136719 C 14.703125 25.890625 13.472656 28.207031 12.730469 30.058594 C 9.542969 37.984375 9.597656 47.035156 12.890625 54.890625 C 15.996094 62.320312 21.820312 68.4375 29.082031 71.90625 C 32.652344 73.609375 36.328125 74.621094 40.402344 75.007812 C 41.679688 75.125 44.835938 75.144531 46.105469 75.042969 C 56.675781 74.15625 66.058594 68.40625 71.625 59.40625 C 76.425781 51.628906 77.71875 41.992188 75.148438 33.148438 C 72.152344 22.832031 64.203125 14.574219 53.964844 11.152344 C 51.367188 10.289062 48.859375 9.777344 46.039062 9.535156 C 45.28125 9.472656 41.890625 9.460938 41.035156 9.515625 Z M 45.378906 11.402344 C 52.152344 11.878906 58.199219 14.28125 63.394531 18.574219 C 64.292969 19.3125 65.96875 20.949219 66.871094 21.972656 C 75.730469 32 77.035156 46.753906 70.089844 58.222656 C 68.808594 60.324219 67.449219 62.070312 65.667969 63.875 C 63.070312 66.507812 60.628906 68.296875 57.46875 69.886719 C 54.023438 71.628906 50.566406 72.644531 46.613281 73.085938 C 45.308594 73.230469 41.734375 73.25 40.511719 73.121094 C 34.503906 72.472656 29.375 70.496094 24.773438 67.058594 C 18.082031 62.066406 13.710938 54.699219 12.578125 46.523438 C 12.375 45.023438 12.300781 43.898438 12.300781 42.289062 C 12.300781 38.828125 12.808594 35.722656 13.898438 32.476562 C 16.03125 26.125 20.136719 20.695312 25.78125 16.785156 C 26.800781 16.074219 29.253906 14.648438 29.449219 14.648438 C 29.511719 14.648438 29.535156 15.90625 29.535156 20.046875 C 29.535156 24.855469 29.519531 25.457031 29.421875 25.585938 C 29.359375 25.671875 29.0625 26.214844 28.75 26.804688 L 28.179688 27.875 L 27.710938 28.027344 C 26.710938 28.359375 25.71875 28.972656 25.328125 29.511719 C 25.191406 29.691406 25.003906 30.015625 24.898438 30.238281 C 24.726562 30.609375 24.703125 30.726562 24.683594 31.695312 L 24.65625 32.753906 L 26.378906 32.765625 L 28.101562 32.789062 L 28.183594 33.125 C 28.304688 33.589844 28.59375 33.984375 29.011719 34.238281 C 29.289062 34.410156 29.421875 34.445312 29.769531 34.445312 C 30.582031 34.4375 31.222656 33.886719 31.394531 33.050781 L 31.453125 32.789062 L 33.167969 32.765625 L 34.882812 32.753906 L 34.882812 31.828125 C 34.882812 31.09375 34.855469 30.804688 34.746094 30.453125 C 34.410156 29.382812 33.433594 28.566406 31.828125 28.019531 C 31.394531 27.875 31.367188 27.847656 31.160156 27.460938 C 31.042969 27.230469 30.75 26.691406 30.511719 26.257812 L 30.089844 25.46875 L 30.089844 14.308594 L 30.492188 14.128906 C 34.910156 12.078125 40.472656 11.0625 45.378906 11.402344 Z M 31.410156 28.46875 C 32.089844 28.664062 33.0625 29.167969 33.480469 29.539062 C 33.667969 29.707031 33.925781 30.039062 34.050781 30.277344 C 34.273438 30.679688 34.292969 30.769531 34.3125 31.453125 L 34.34375 32.199219 L 25.210938 32.199219 L 25.238281 31.488281 C 25.257812 30.851562 25.289062 30.726562 25.488281 30.3125 C 25.636719 30.03125 25.835938 29.753906 26.046875 29.574219 C 26.636719 29.054688 27.644531 28.566406 28.53125 28.371094 C 29.226562 28.21875 30.714844 28.269531 31.410156 28.46875 Z M 31.410156 28.46875 "/>
<path style=" stroke:none;fill-rule:nonzero;fill:rgb(0%,0%,0%);fill-opacity:1;" d="M 25.140625 41.605469 C 23.75 41.785156 22.625 42.722656 22.152344 44.078125 C 21.992188 44.527344 21.992188 44.570312 21.992188 48.023438 C 21.992188 51.457031 21.992188 51.519531 22.152344 52.058594 C 22.710938 53.964844 24.238281 55.402344 26.140625 55.796875 C 26.546875 55.886719 27.929688 55.902344 34.925781 55.902344 L 43.230469 55.902344 L 43.203125 50.179688 C 43.179688 43.933594 43.195312 44.183594 42.765625 43.394531 C 42.339844 42.613281 41.609375 42.019531 40.726562 41.714844 L 40.269531 41.5625 L 32.9375 41.554688 C 28.90625 41.550781 25.398438 41.570312 25.140625 41.605469 Z M 25.140625 41.605469 "/>
<path style=" stroke:none;fill-rule:nonzero;fill:rgb(0%,0%,0%);fill-opacity:1;" d="M 46.664062 41.597656 C 45.390625 41.769531 44.335938 42.613281 43.839844 43.84375 L 43.675781 44.257812 L 43.652344 50.082031 L 43.632812 55.902344 L 52.132812 55.886719 L 60.628906 55.867188 L 61.117188 55.699219 C 62.867188 55.113281 64.054688 53.933594 64.632812 52.203125 C 64.792969 51.726562 64.800781 51.664062 64.820312 48.246094 C 64.839844 44.464844 64.835938 44.347656 64.445312 43.554688 C 64.070312 42.777344 63.167969 42.019531 62.269531 41.714844 L 61.8125 41.5625 L 54.445312 41.554688 C 50.394531 41.550781 46.890625 41.570312 46.664062 41.597656 Z M 46.664062 41.597656 "/>
<path style=" stroke:none;fill-rule:nonzero;fill:rgb(0%,0%,0%);fill-opacity:1;" d="M 16.523438 44.527344 C 15.355469 44.839844 14.757812 46.1875 15.324219 47.257812 C 15.585938 47.769531 16.121094 48.160156 16.699219 48.265625 L 16.957031 48.3125 L 16.957031 49.453125 C 16.957031 52.039062 17.308594 54 18.074219 55.617188 C 19.046875 57.691406 20.722656 59.164062 23.035156 59.976562 C 24.398438 60.453125 25.65625 60.65625 27.601562 60.71875 L 28.964844 60.757812 L 28.625 61.753906 C 28.183594 63.023438 28.179688 63.273438 28.554688 63.648438 C 28.789062 63.890625 28.859375 63.917969 29.15625 63.917969 C 29.535156 63.917969 29.886719 63.742188 30.019531 63.5 C 30.0625 63.417969 30.257812 62.902344 30.449219 62.339844 C 30.636719 61.78125 30.847656 61.195312 30.902344 61.027344 L 31.007812 60.738281 L 43.417969 60.75 L 55.828125 60.773438 L 56.289062 62.085938 C 56.539062 62.804688 56.78125 63.46875 56.828125 63.550781 C 57.101562 64.035156 58.074219 64.035156 58.394531 63.550781 C 58.628906 63.183594 58.609375 62.964844 58.238281 61.878906 C 58.046875 61.320312 57.886719 60.835938 57.886719 60.808594 C 57.886719 60.78125 58.503906 60.738281 59.261719 60.71875 C 60.769531 60.667969 61.714844 60.550781 62.820312 60.28125 C 66.523438 59.371094 68.824219 56.945312 69.554688 53.191406 C 69.761719 52.109375 69.835938 51.179688 69.835938 49.6875 L 69.835938 48.320312 L 70.214844 48.238281 C 71.976562 47.84375 72.25 45.453125 70.617188 44.660156 L 70.21875 44.464844 L 68.121094 44.445312 L 66.03125 44.421875 L 65.996094 47.863281 C 65.96875 51.5 65.933594 51.949219 65.597656 53.136719 C 65.214844 54.484375 64.390625 55.507812 63.230469 56.066406 C 62.492188 56.417969 61.839844 56.597656 60.707031 56.777344 C 59.984375 56.894531 58.871094 56.902344 43.5 56.902344 C 26.140625 56.902344 26.449219 56.910156 25.148438 56.59375 C 22.714844 55.996094 21.492188 54.707031 21.019531 52.210938 C 20.859375 51.359375 20.777344 49.640625 20.777344 46.898438 L 20.777344 44.429688 L 18.816406 44.4375 C 17.464844 44.4375 16.746094 44.464844 16.523438 44.527344 Z M 16.523438 44.527344 "/>
<path style=" stroke:none;fill-rule:nonzero;fill:rgb(0%,0%,0%);fill-opacity:1;" d="M 26.476562 82.226562 L 26.476562 85.476562 L 27.449219 85.476562 L 27.449219 83.0625 L 27.941406 82.664062 L 28.433594 82.269531 L 28.71875 82.574219 C 28.878906 82.746094 29.554688 83.464844 30.222656 84.175781 L 31.429688 85.476562 L 33.464844 85.476562 L 34.285156 83.539062 L 35.886719 83.554688 L 37.484375 83.574219 L 37.898438 84.523438 L 38.324219 85.476562 L 38.824219 85.476562 C 39.101562 85.476562 39.332031 85.46875 39.332031 85.453125 C 39.332031 85.449219 38.679688 83.996094 37.886719 82.226562 L 36.441406 79.015625 L 35.273438 79.015625 L 33.90625 82.179688 L 32.542969 85.34375 L 30.867188 83.582031 C 29.945312 82.609375 29.1875 81.792969 29.1875 81.765625 C 29.191406 81.730469 29.671875 81.316406 30.257812 80.824219 C 30.839844 80.339844 31.578125 79.726562 31.894531 79.464844 L 32.464844 78.980469 L 31.855469 78.980469 L 31.234375 78.988281 L 29.359375 80.546875 L 27.484375 82.109375 L 27.460938 80.542969 L 27.449219 78.980469 L 26.476562 78.980469 Z M 35.996094 80.085938 C 36.050781 80.21875 36.324219 80.851562 36.601562 81.488281 C 36.878906 82.132812 37.109375 82.664062 37.109375 82.683594 C 37.109375 82.699219 36.546875 82.710938 35.851562 82.710938 C 34.871094 82.710938 34.597656 82.691406 34.628906 82.621094 C 34.65625 82.582031 34.925781 81.910156 35.238281 81.136719 C 35.558594 80.367188 35.835938 79.761719 35.855469 79.789062 C 35.886719 79.824219 35.949219 79.953125 35.996094 80.085938 Z M 35.996094 80.085938 "/>
<path style=" stroke:none;fill-rule:nonzero;fill:rgb(0%,0%,0%);fill-opacity:1;" d="M 40.375 82.226562 L 40.375 85.476562 L 41.292969 85.476562 L 41.261719 82.730469 C 41.234375 80.113281 41.242188 80.003906 41.359375 80.160156 C 41.421875 80.25 42.035156 81.109375 42.722656 82.0625 C 43.402344 83.015625 44.246094 84.167969 44.585938 84.632812 L 45.203125 85.46875 L 45.746094 85.476562 L 46.28125 85.476562 L 46.28125 78.980469 L 45.355469 78.980469 L 45.390625 81.625 L 45.417969 84.28125 L 44.996094 83.6875 C 44.757812 83.359375 43.925781 82.234375 43.140625 81.191406 C 42.355469 80.140625 41.671875 79.214844 41.617188 79.132812 C 41.535156 78.992188 41.464844 78.980469 40.949219 78.980469 L 40.375 78.980469 Z M 40.375 82.226562 "/>
<path style=" stroke:none;fill-rule:nonzero;fill:rgb(0%,0%,0%);fill-opacity:1;" d="M 50.117188 79.097656 C 50.011719 79.296875 47.390625 85.390625 47.390625 85.433594 C 47.390625 85.453125 47.609375 85.476562 47.863281 85.476562 L 48.335938 85.476562 L 49.15625 83.539062 L 50.753906 83.554688 L 52.355469 83.574219 L 52.769531 84.523438 L 53.195312 85.476562 L 53.695312 85.476562 C 53.972656 85.476562 54.203125 85.46875 54.203125 85.453125 C 54.203125 85.449219 53.550781 83.996094 52.757812 82.226562 L 51.3125 79.015625 L 50.75 78.992188 C 50.261719 78.980469 50.171875 78.992188 50.117188 79.097656 Z M 50.867188 80.085938 C 50.921875 80.21875 51.195312 80.851562 51.472656 81.488281 C 51.75 82.132812 51.980469 82.664062 51.980469 82.683594 C 51.980469 82.699219 51.414062 82.710938 50.722656 82.710938 C 49.742188 82.710938 49.46875 82.691406 49.496094 82.621094 C 49.527344 82.582031 49.796875 81.910156 50.109375 81.136719 C 50.429688 80.367188 50.707031 79.761719 50.726562 79.789062 C 50.753906 79.824219 50.816406 79.953125 50.867188 80.085938 Z M 50.867188 80.085938 "/>
<path style=" stroke:none;fill-rule:nonzero;fill:rgb(0%,0%,0%);fill-opacity:1;" d="M 55.246094 82.226562 L 55.246094 85.476562 L 56.21875 85.476562 L 56.21875 82.855469 L 57.734375 82.835938 C 59.144531 82.816406 59.261719 82.800781 59.601562 82.648438 C 60.34375 82.316406 60.699219 81.703125 60.65625 80.789062 C 60.625 80.09375 60.386719 79.679688 59.851562 79.351562 C 59.316406 79.035156 58.898438 78.980469 56.96875 78.980469 L 55.246094 78.980469 Z M 58.804688 79.816406 C 59.269531 79.917969 59.65625 80.273438 59.734375 80.671875 C 59.84375 81.28125 59.503906 81.863281 58.949219 82.011719 C 58.804688 82.054688 58.128906 82.089844 57.453125 82.089844 L 56.21875 82.089844 L 56.21875 79.738281 L 57.328125 79.738281 C 57.933594 79.738281 58.601562 79.773438 58.804688 79.816406 Z M 58.804688 79.816406 "/>
<path style=" stroke:none;fill-rule:nonzero;fill:rgb(0%,0%,0%);fill-opacity:1;" d="M 33.84375 87.375 C 33.84375 87.464844 34.941406 87.480469 43.328125 87.480469 C 51.714844 87.480469 52.8125 87.464844 52.8125 87.375 C 52.8125 87.285156 51.714844 87.273438 43.328125 87.273438 C 34.941406 87.273438 33.84375 87.285156 33.84375 87.375 Z M 33.84375 87.375 "/>
</g>
</svg>
